<svg xmlns="http://www.w3.org/2000/svg" width="800" height="1000" viewBox="0 0 800 1000" role="img" aria-labelledby="t d">
<defs><linearGradient id="bg" x1="0" y1="0" x2="1" y2="1"><stop stop-color="#070b1a"/><stop offset=".55" stop-color="#111a38"/><stop offset="1" stop-color="#34106a"/></linearGradient><linearGradient id="g" x1="0" y1="0" x2="1" y2="1"><stop stop-color="#6d5dfc"/><stop offset="1" stop-color="#c45cff"/></linearGradient><radialGradient id="r"><stop stop-color="#9b5cff" stop-opacity=".55"/><stop offset="1" stop-color="#9b5cff" stop-opacity="0"/></radialGradient></defs>
<title id="t">Recover access</title><desc id="d">Secure password reset and account protection.</desc>
<rect width="100%" height="100%" rx="36" fill="url(#bg)"/><circle cx="600" cy="350" r="336" fill="url(#r)"/>
<path d="M0 820 C200 680 400 960 800 720" fill="none" stroke="#8b5cf6" stroke-opacity=".3" stroke-width="3"/>
<g fill="#a78bfa" opacity=".6"><circle cx="70" cy="820" r="3"/><circle cx="137" cy="832" r="3"/><circle cx="204" cy="844" r="3"/><circle cx="271" cy="820" r="3"/><circle cx="338" cy="832" r="3"/><circle cx="405" cy="844" r="3"/><circle cx="472" cy="820" r="3"/><circle cx="539" cy="832" r="3"/><circle cx="606" cy="844" r="3"/><circle cx="673" cy="820" r="3"/><circle cx="740" cy="832" r="3"/><circle cx="807" cy="844" r="3"/><circle cx="874" cy="820" r="3"/><circle cx="941" cy="832" r="3"/></g>
<text x="80" y="125" fill="#a78bfa" font-family="Arial,Helvetica,sans-serif" font-size="22" font-weight="700" letter-spacing="3">VP3 MEDIA GROUP</text>
<text x="80" y="190" fill="white" font-family="Arial,Helvetica,sans-serif" font-size="46" font-weight="800">Recover access</text>
<text x="80" y="240" fill="#b9c1dd" font-family="Arial,Helvetica,sans-serif" font-size="24">Secure password reset and account protection.</text>
<rect x="160" y="220" width="480" height="520" rx="34" fill="#11182f" stroke="url(#g)" stroke-width="4"/>
        <rect x="195" y="260" width="410" height="330" rx="20" fill="#0b1023"/>
        <rect x="230" y="305" width="340" height="36" rx="18" fill="#222b4d"/>
        <rect x="230" y="365" width="210" height="20" rx="10" fill="#7c3aed" opacity=".9"/>
        <rect x="230" y="410" width="300" height="18" rx="9" fill="#334064"/>
        <rect x="230" y="445" width="260" height="18" rx="9" fill="#334064"/>
        <circle cx="400" cy="675" r="54" fill="url(#g)" opacity=".9"/>
        <path d="M378 675l16 16 32-36" fill="none" stroke="white" stroke-width="12" stroke-linecap="round" stroke-linejoin="round"/>
</svg>